# MagicaVoxel @ Ephtracy

# group
o 

# material
mtllib TrashFactory-1.mtl
usemtl palette

# normals
vn -1 0 0
vn 1 0 0
vn 0 0 1
vn 0 0 -1
vn 0 -1 0
vn 0 1 0

# texcoords
vt 0.00195312 0.5
vt 0.0878906 0.5
vt 0.0917969 0.5
vt 0.119141 0.5
vt 0.306641 0.5
vt 0.458984 0.5
vt 0.470703 0.5
vt 0.728516 0.5
vt 0.986328 0.5
vt 0.994141 0.5

# verts
v -2 0 -0.6
v -2 0 -2
v -2 0.7 -0.6
v -2 0.7 -2
v -2 1 -0.6
v -2 1 -2
v -2 1.4 -0.6
v -2 1.4 -2
v -2 1.7 -0.6
v -2 1.7 -2
v -2 2.1 -0.6
v -2 2.1 -2
v -2 2.4 -0.6
v -2 2.4 -2
v -2 2.8 -0.6
v -2 2.8 -2
v -2 3.1 -0.6
v -2 3.1 -2
v -2 4 -0.6
v -2 4 -2
v -1.7 3.6 -0.6
v -1.7 3.6 -0.7
v -1.7 3.7 -0.6
v -1.7 3.7 -0.7
v -1.3 3.6 -0.6
v -1.3 3.6 -0.7
v -1.3 3.7 -0.6
v -1.3 3.7 -0.7
v -1 3.5 -0.6
v -1 3.5 -0.7
v -1 3.8 -0.6
v -1 3.8 -0.7
v -0.8 3.4 -0.5
v -0.8 3.4 -0.6
v -0.8 3.9 -0.5
v -0.8 3.9 -0.6
v 0.2 3.6 -0.5
v 0.2 3.6 -0.7
v 0.2 3.7 -0.5
v 0.2 3.7 -0.7
v 0.4 3.6 -0.5
v 0.4 3.6 -0.7
v 0.4 3.7 -0.5
v 0.4 3.7 -0.7
v 0.6 3.6 -0.5
v 0.6 3.6 -0.7
v 0.6 3.7 -0.5
v 0.6 3.7 -0.7
v 0.8 3.5 -0.6
v 0.8 3.5 -0.7
v 0.8 3.8 -0.6
v 0.8 3.8 -0.7
v 0.9 3.5 -0.5
v 0.9 3.5 -0.6
v 0.9 3.8 -0.5
v 0.9 3.8 -0.6
v 1.4 3.5 -0.5
v 1.4 3.5 -0.6
v 1.4 3.8 -0.5
v 1.4 3.8 -0.6
v 1.5 0.5 -0.6
v 1.5 0.5 -0.8
v 1.5 0.5 -1.8
v 1.5 0.5 -2
v 1.5 0.7 -0.6
v 1.5 0.7 -0.8
v 1.5 0.7 -1.8
v 1.5 0.7 -2
v 1.5 1 -0.6
v 1.5 1 -0.8
v 1.5 1 -1.8
v 1.5 1 -2
v 1.5 1.4 -0.6
v 1.5 1.4 -0.8
v 1.5 1.4 -1.8
v 1.5 1.4 -2
v 1.5 1.7 -0.6
v 1.5 1.7 -0.8
v 1.5 1.7 -1.8
v 1.5 1.7 -2
v 1.5 2.1 -0.6
v 1.5 2.1 -0.8
v 1.5 2.1 -1.8
v 1.5 2.1 -2
v 1.5 2.4 -0.6
v 1.5 2.4 -0.8
v 1.5 2.4 -1.8
v 1.5 2.4 -2
v 1.5 2.8 -0.6
v 1.5 2.8 -0.8
v 1.5 2.8 -1.8
v 1.5 2.8 -2
v 1.5 3.1 -0.6
v 1.5 3.1 -0.8
v 1.5 3.1 -1.8
v 1.5 3.1 -2
v 1.5 3.3 -0.6
v 1.5 3.3 -0.8
v 1.5 3.3 -1.8
v 1.5 3.3 -2
v -1.8 3.5 -0.6
v -1.8 3.5 -0.7
v -1.8 3.8 -0.6
v -1.8 3.8 -0.7
v -1.5 0.5 -0.6
v -1.5 0.5 -0.8
v -1.5 0.5 -1.8
v -1.5 0.5 -2
v -1.5 0.7 -0.6
v -1.5 0.7 -0.8
v -1.5 0.7 -1.8
v -1.5 0.7 -2
v -1.5 1 -0.6
v -1.5 1 -0.8
v -1.5 1 -1.8
v -1.5 1 -2
v -1.5 1.4 -0.6
v -1.5 1.4 -0.8
v -1.5 1.4 -1.8
v -1.5 1.4 -2
v -1.5 1.7 -0.6
v -1.5 1.7 -0.8
v -1.5 1.7 -1.8
v -1.5 1.7 -2
v -1.5 2.1 -0.6
v -1.5 2.1 -0.8
v -1.5 2.1 -1.8
v -1.5 2.1 -2
v -1.5 2.4 -0.6
v -1.5 2.4 -0.8
v -1.5 2.4 -1.8
v -1.5 2.4 -2
v -1.5 2.8 -0.6
v -1.5 2.8 -0.8
v -1.5 2.8 -1.8
v -1.5 2.8 -2
v -1.5 3.1 -0.6
v -1.5 3.1 -0.8
v -1.5 3.1 -1.8
v -1.5 3.1 -2
v -1.5 3.3 -0.6
v -1.5 3.3 -0.8
v -1.5 3.3 -1.8
v -1.5 3.3 -2
v -1.5 3.6 -0.6
v -1.5 3.6 -0.7
v -1.5 3.7 -0.6
v -1.5 3.7 -0.7
v -1.1 3.6 -0.6
v -1.1 3.6 -0.7
v -1.1 3.7 -0.6
v -1.1 3.7 -0.7
v -0.0999999 3.4 -0.5
v -0.0999999 3.4 -0.6
v -0.0999999 3.9 -0.5
v -0.0999999 3.9 -0.6
v 0.1 3.5 -0.6
v 0.1 3.5 -0.7
v 0.1 3.8 -0.6
v 0.1 3.8 -0.7
v 0.3 3.6 -0.5
v 0.3 3.6 -0.7
v 0.3 3.7 -0.5
v 0.3 3.7 -0.7
v 0.5 3.6 -0.5
v 0.5 3.6 -0.7
v 0.5 3.7 -0.5
v 0.5 3.7 -0.7
v 0.7 3.6 -0.5
v 0.7 3.6 -0.7
v 0.7 3.7 -0.5
v 0.7 3.7 -0.7
v 1.2 3.5 -0.5
v 1.2 3.5 -0.6
v 1.2 3.8 -0.5
v 1.2 3.8 -0.6
v 1.7 3.5 -0.5
v 1.7 3.5 -0.6
v 1.7 3.8 -0.5
v 1.7 3.8 -0.6
v 2 0 -0.6
v 2 0 -2
v 2 0.7 -0.6
v 2 0.7 -2
v 2 1 -0.6
v 2 1 -2
v 2 1.4 -0.6
v 2 1.4 -2
v 2 1.7 -0.6
v 2 1.7 -2
v 2 2.1 -0.6
v 2 2.1 -2
v 2 2.4 -0.6
v 2 2.4 -2
v 2 2.8 -0.6
v 2 2.8 -2
v 2 3.1 -0.6
v 2 3.1 -2
v 2 4 -0.6
v 2 4 -2
v -0.8 3.4 -0.5
v -0.8 3.9 -0.5
v -0.7 3.5 -0.5
v -0.7 3.8 -0.5
v -0.6 3.6 -0.5
v -0.6 3.7 -0.5
v -0.5 3.5 -0.5
v -0.5 3.6 -0.5
v -0.5 3.7 -0.5
v -0.4 3.5 -0.5
v -0.4 3.6 -0.5
v -0.4 3.7 -0.5
v -0.3 3.6 -0.5
v -0.3 3.7 -0.5
v -0.2 3.5 -0.5
v -0.2 3.8 -0.5
v -0.0999999 3.4 -0.5
v -0.0999999 3.9 -0.5
v 0.2 3.6 -0.5
v 0.2 3.7 -0.5
v 0.3 3.6 -0.5
v 0.3 3.7 -0.5
v 0.4 3.6 -0.5
v 0.4 3.7 -0.5
v 0.5 3.6 -0.5
v 0.5 3.7 -0.5
v 0.6 3.6 -0.5
v 0.6 3.7 -0.5
v 0.7 3.6 -0.5
v 0.7 3.7 -0.5
v 0.9 3.5 -0.5
v 0.9 3.8 -0.5
v 1.2 3.5 -0.5
v 1.2 3.8 -0.5
v 1.4 3.5 -0.5
v 1.4 3.8 -0.5
v 1.7 3.5 -0.5
v 1.7 3.8 -0.5
v -2 0 -0.6
v -2 0.7 -0.6
v -2 1 -0.6
v -2 1.4 -0.6
v -2 1.7 -0.6
v -2 2.1 -0.6
v -2 2.4 -0.6
v -2 2.8 -0.6
v -2 3.1 -0.6
v -2 4 -0.6
v -1.8 3.5 -0.6
v -1.8 3.8 -0.6
v -1.7 3.6 -0.6
v -1.7 3.7 -0.6
v -1.5 0.5 -0.6
v -1.5 0.7 -0.6
v -1.5 1 -0.6
v -1.5 1.4 -0.6
v -1.5 1.7 -0.6
v -1.5 2.1 -0.6
v -1.5 2.4 -0.6
v -1.5 2.8 -0.6
v -1.5 3.1 -0.6
v -1.5 3.3 -0.6
v -1.5 3.6 -0.6
v -1.5 3.7 -0.6
v -1.3 3.6 -0.6
v -1.3 3.7 -0.6
v -1.1 3.6 -0.6
v -1.1 3.7 -0.6
v -1 3.5 -0.6
v -1 3.8 -0.6
v -0.8 3.4 -0.6
v -0.8 3.9 -0.6
v -0.0999999 3.4 -0.6
v -0.0999999 3.9 -0.6
v 0.1 3.5 -0.6
v 0.1 3.8 -0.6
v 0.8 3.5 -0.6
v 0.8 3.8 -0.6
v 0.9 3.5 -0.6
v 0.9 3.8 -0.6
v 1.2 3.5 -0.6
v 1.2 3.8 -0.6
v 1.4 3.5 -0.6
v 1.4 3.8 -0.6
v 1.5 0.5 -0.6
v 1.5 0.7 -0.6
v 1.5 1 -0.6
v 1.5 1.4 -0.6
v 1.5 1.7 -0.6
v 1.5 2.1 -0.6
v 1.5 2.4 -0.6
v 1.5 2.8 -0.6
v 1.5 3.1 -0.6
v 1.5 3.3 -0.6
v 1.7 3.5 -0.6
v 1.7 3.8 -0.6
v 2 0 -0.6
v 2 0.7 -0.6
v 2 1 -0.6
v 2 1.4 -0.6
v 2 1.7 -0.6
v 2 2.1 -0.6
v 2 2.4 -0.6
v 2 2.8 -0.6
v 2 3.1 -0.6
v 2 4 -0.6
v -1.8 3.5 -0.7
v -1.8 3.8 -0.7
v -1.7 3.6 -0.7
v -1.7 3.7 -0.7
v -1.5 3.6 -0.7
v -1.5 3.7 -0.7
v -1.3 3.6 -0.7
v -1.3 3.7 -0.7
v -1.1 3.6 -0.7
v -1.1 3.7 -0.7
v -1 3.5 -0.7
v -1 3.8 -0.7
v 0.1 3.5 -0.7
v 0.1 3.8 -0.7
v 0.2 3.6 -0.7
v 0.2 3.7 -0.7
v 0.3 3.6 -0.7
v 0.3 3.7 -0.7
v 0.4 3.6 -0.7
v 0.4 3.7 -0.7
v 0.5 3.6 -0.7
v 0.5 3.7 -0.7
v 0.6 3.6 -0.7
v 0.6 3.7 -0.7
v 0.7 3.6 -0.7
v 0.7 3.7 -0.7
v 0.8 3.5 -0.7
v 0.8 3.8 -0.7
v -2 0 -2
v -2 0.7 -2
v -2 1 -2
v -2 1.4 -2
v -2 1.7 -2
v -2 2.1 -2
v -2 2.4 -2
v -2 2.8 -2
v -2 3.1 -2
v -2 4 -2
v -1.5 0.5 -2
v -1.5 0.7 -2
v -1.5 1 -2
v -1.5 1.4 -2
v -1.5 1.7 -2
v -1.5 2.1 -2
v -1.5 2.4 -2
v -1.5 2.8 -2
v -1.5 3.1 -2
v -1.5 3.3 -2
v 1.5 0.5 -2
v 1.5 0.7 -2
v 1.5 1 -2
v 1.5 1.4 -2
v 1.5 1.7 -2
v 1.5 2.1 -2
v 1.5 2.4 -2
v 1.5 2.8 -2
v 1.5 3.1 -2
v 1.5 3.3 -2
v 2 0 -2
v 2 0.7 -2
v 2 1 -2
v 2 1.4 -2
v 2 1.7 -2
v 2 2.1 -2
v 2 2.4 -2
v 2 2.8 -2
v 2 3.1 -2
v 2 4 -2
v -2 0 -0.6
v 2 0 -0.6
v -2 0 -2
v 2 0 -2
v -1.5 3.3 -0.6
v 1.5 3.3 -0.6
v -1.5 3.3 -0.8
v 1.5 3.3 -0.8
v -1.5 3.3 -1.8
v 1.5 3.3 -1.8
v -1.5 3.3 -2
v 1.5 3.3 -2
v -0.8 3.4 -0.5
v -0.0999999 3.4 -0.5
v -0.8 3.4 -0.6
v -0.0999999 3.4 -0.6
v 0.9 3.5 -0.5
v 1.2 3.5 -0.5
v 1.4 3.5 -0.5
v 1.7 3.5 -0.5
v 0.9 3.5 -0.6
v 1.2 3.5 -0.6
v 1.4 3.5 -0.6
v 1.7 3.5 -0.6
v 0.2 3.6 -0.5
v 0.3 3.6 -0.5
v 0.4 3.6 -0.5
v 0.5 3.6 -0.5
v 0.6 3.6 -0.5
v 0.7 3.6 -0.5
v -1.7 3.6 -0.6
v -1.5 3.6 -0.6
v -1.3 3.6 -0.6
v -1.1 3.6 -0.6
v -1.7 3.6 -0.7
v -1.5 3.6 -0.7
v -1.3 3.6 -0.7
v -1.1 3.6 -0.7
v 0.2 3.6 -0.7
v 0.3 3.6 -0.7
v 0.4 3.6 -0.7
v 0.5 3.6 -0.7
v 0.6 3.6 -0.7
v 0.7 3.6 -0.7
v -1.8 3.8 -0.6
v -1 3.8 -0.6
v 0.1 3.8 -0.6
v 0.8 3.8 -0.6
v -1.8 3.8 -0.7
v -1 3.8 -0.7
v 0.1 3.8 -0.7
v 0.8 3.8 -0.7
v -1.5 0.5 -0.6
v 1.5 0.5 -0.6
v -1.5 0.5 -0.8
v 1.5 0.5 -0.8
v -1.5 0.5 -1.8
v 1.5 0.5 -1.8
v -1.5 0.5 -2
v 1.5 0.5 -2
v -1.8 3.5 -0.6
v -1 3.5 -0.6
v 0.1 3.5 -0.6
v 0.8 3.5 -0.6
v -1.8 3.5 -0.7
v -1 3.5 -0.7
v 0.1 3.5 -0.7
v 0.8 3.5 -0.7
v 0.2 3.7 -0.5
v 0.3 3.7 -0.5
v 0.4 3.7 -0.5
v 0.5 3.7 -0.5
v 0.6 3.7 -0.5
v 0.7 3.7 -0.5
v -1.7 3.7 -0.6
v -1.5 3.7 -0.6
v -1.3 3.7 -0.6
v -1.1 3.7 -0.6
v -1.7 3.7 -0.7
v -1.5 3.7 -0.7
v -1.3 3.7 -0.7
v -1.1 3.7 -0.7
v 0.2 3.7 -0.7
v 0.3 3.7 -0.7
v 0.4 3.7 -0.7
v 0.5 3.7 -0.7
v 0.6 3.7 -0.7
v 0.7 3.7 -0.7
v 0.9 3.8 -0.5
v 1.2 3.8 -0.5
v 1.4 3.8 -0.5
v 1.7 3.8 -0.5
v 0.9 3.8 -0.6
v 1.2 3.8 -0.6
v 1.4 3.8 -0.6
v 1.7 3.8 -0.6
v -0.8 3.9 -0.5
v -0.0999999 3.9 -0.5
v -0.8 3.9 -0.6
v -0.0999999 3.9 -0.6
v -2 4 -0.6
v 2 4 -0.6
v -2 4 -2
v 2 4 -2

# faces
f 3/2/1 2/2/1 1/2/1
f 4/2/1 2/2/1 3/2/1
f 5/10/1 4/10/1 3/10/1
f 6/10/1 4/10/1 5/10/1
f 7/2/1 6/2/1 5/2/1
f 8/2/1 6/2/1 7/2/1
f 9/10/1 8/10/1 7/10/1
f 10/10/1 8/10/1 9/10/1
f 11/2/1 10/2/1 9/2/1
f 12/2/1 10/2/1 11/2/1
f 13/10/1 12/10/1 11/10/1
f 14/10/1 12/10/1 13/10/1
f 15/2/1 14/2/1 13/2/1
f 16/2/1 14/2/1 15/2/1
f 17/10/1 16/10/1 15/10/1
f 18/10/1 16/10/1 17/10/1
f 19/2/1 18/2/1 17/2/1
f 20/2/1 18/2/1 19/2/1
f 23/3/1 22/3/1 21/3/1
f 24/3/1 22/3/1 23/3/1
f 27/4/1 26/4/1 25/4/1
f 28/4/1 26/4/1 27/4/1
f 31/2/1 30/2/1 29/2/1
f 32/2/1 30/2/1 31/2/1
f 35/9/1 34/9/1 33/9/1
f 36/9/1 34/9/1 35/9/1
f 39/8/1 38/8/1 37/8/1
f 40/8/1 38/8/1 39/8/1
f 43/3/1 42/3/1 41/3/1
f 44/3/1 42/3/1 43/3/1
f 47/4/1 46/4/1 45/4/1
f 48/4/1 46/4/1 47/4/1
f 51/2/1 50/2/1 49/2/1
f 52/2/1 50/2/1 51/2/1
f 55/9/1 54/9/1 53/9/1
f 56/9/1 54/9/1 55/9/1
f 59/9/1 58/9/1 57/9/1
f 60/9/1 58/9/1 59/9/1
f 65/2/1 62/2/1 61/2/1
f 66/9/1 63/9/1 62/9/1
f 66/2/1 62/2/1 65/2/1
f 67/2/1 64/2/1 63/2/1
f 67/9/1 63/9/1 66/9/1
f 68/2/1 64/2/1 67/2/1
f 69/10/1 66/10/1 65/10/1
f 70/9/1 67/9/1 66/9/1
f 70/10/1 66/10/1 69/10/1
f 71/10/1 68/10/1 67/10/1
f 71/9/1 67/9/1 70/9/1
f 72/10/1 68/10/1 71/10/1
f 73/2/1 70/2/1 69/2/1
f 74/9/1 71/9/1 70/9/1
f 74/2/1 70/2/1 73/2/1
f 75/2/1 72/2/1 71/2/1
f 75/9/1 71/9/1 74/9/1
f 76/2/1 72/2/1 75/2/1
f 77/10/1 74/10/1 73/10/1
f 78/9/1 75/9/1 74/9/1
f 78/10/1 74/10/1 77/10/1
f 79/10/1 76/10/1 75/10/1
f 79/9/1 75/9/1 78/9/1
f 80/10/1 76/10/1 79/10/1
f 81/2/1 78/2/1 77/2/1
f 82/9/1 79/9/1 78/9/1
f 82/2/1 78/2/1 81/2/1
f 83/2/1 80/2/1 79/2/1
f 83/9/1 79/9/1 82/9/1
f 84/2/1 80/2/1 83/2/1
f 85/10/1 82/10/1 81/10/1
f 86/9/1 83/9/1 82/9/1
f 86/10/1 82/10/1 85/10/1
f 87/10/1 84/10/1 83/10/1
f 87/9/1 83/9/1 86/9/1
f 88/10/1 84/10/1 87/10/1
f 89/2/1 86/2/1 85/2/1
f 90/9/1 87/9/1 86/9/1
f 90/2/1 86/2/1 89/2/1
f 91/2/1 88/2/1 87/2/1
f 91/9/1 87/9/1 90/9/1
f 92/2/1 88/2/1 91/2/1
f 93/10/1 90/10/1 89/10/1
f 94/9/1 91/9/1 90/9/1
f 94/10/1 90/10/1 93/10/1
f 95/10/1 92/10/1 91/10/1
f 95/9/1 91/9/1 94/9/1
f 96/10/1 92/10/1 95/10/1
f 97/2/1 94/2/1 93/2/1
f 98/9/1 95/9/1 94/9/1
f 98/2/1 94/2/1 97/2/1
f 99/2/1 96/2/1 95/2/1
f 99/9/1 95/9/1 98/9/1
f 100/2/1 96/2/1 99/2/1
f 101/2/2 102/2/2 103/2/2
f 103/2/2 102/2/2 104/2/2
f 105/2/2 106/2/2 109/2/2
f 106/9/2 107/9/2 110/9/2
f 109/2/2 106/2/2 110/2/2
f 107/2/2 108/2/2 111/2/2
f 110/9/2 107/9/2 111/9/2
f 111/2/2 108/2/2 112/2/2
f 109/10/2 110/10/2 113/10/2
f 110/9/2 111/9/2 114/9/2
f 113/10/2 110/10/2 114/10/2
f 111/10/2 112/10/2 115/10/2
f 114/9/2 111/9/2 115/9/2
f 115/10/2 112/10/2 116/10/2
f 113/2/2 114/2/2 117/2/2
f 114/9/2 115/9/2 118/9/2
f 117/2/2 114/2/2 118/2/2
f 115/2/2 116/2/2 119/2/2
f 118/9/2 115/9/2 119/9/2
f 119/2/2 116/2/2 120/2/2
f 117/10/2 118/10/2 121/10/2
f 118/9/2 119/9/2 122/9/2
f 121/10/2 118/10/2 122/10/2
f 119/10/2 120/10/2 123/10/2
f 122/9/2 119/9/2 123/9/2
f 123/10/2 120/10/2 124/10/2
f 121/2/2 122/2/2 125/2/2
f 122/9/2 123/9/2 126/9/2
f 125/2/2 122/2/2 126/2/2
f 123/2/2 124/2/2 127/2/2
f 126/9/2 123/9/2 127/9/2
f 127/2/2 124/2/2 128/2/2
f 125/10/2 126/10/2 129/10/2
f 126/9/2 127/9/2 130/9/2
f 129/10/2 126/10/2 130/10/2
f 127/10/2 128/10/2 131/10/2
f 130/9/2 127/9/2 131/9/2
f 131/10/2 128/10/2 132/10/2
f 129/2/2 130/2/2 133/2/2
f 130/9/2 131/9/2 134/9/2
f 133/2/2 130/2/2 134/2/2
f 131/2/2 132/2/2 135/2/2
f 134/9/2 131/9/2 135/9/2
f 135/2/2 132/2/2 136/2/2
f 133/10/2 134/10/2 137/10/2
f 134/9/2 135/9/2 138/9/2
f 137/10/2 134/10/2 138/10/2
f 135/10/2 136/10/2 139/10/2
f 138/9/2 135/9/2 139/9/2
f 139/10/2 136/10/2 140/10/2
f 137/2/2 138/2/2 141/2/2
f 138/9/2 139/9/2 142/9/2
f 141/2/2 138/2/2 142/2/2
f 139/2/2 140/2/2 143/2/2
f 142/9/2 139/9/2 143/9/2
f 143/2/2 140/2/2 144/2/2
f 145/3/2 146/3/2 147/3/2
f 147/3/2 146/3/2 148/3/2
f 149/4/2 150/4/2 151/4/2
f 151/4/2 150/4/2 152/4/2
f 153/9/2 154/9/2 155/9/2
f 155/9/2 154/9/2 156/9/2
f 157/2/2 158/2/2 159/2/2
f 159/2/2 158/2/2 160/2/2
f 161/8/2 162/8/2 163/8/2
f 163/8/2 162/8/2 164/8/2
f 165/3/2 166/3/2 167/3/2
f 167/3/2 166/3/2 168/3/2
f 169/4/2 170/4/2 171/4/2
f 171/4/2 170/4/2 172/4/2
f 173/9/2 174/9/2 175/9/2
f 175/9/2 174/9/2 176/9/2
f 177/9/2 178/9/2 179/9/2
f 179/9/2 178/9/2 180/9/2
f 181/2/2 182/2/2 183/2/2
f 183/2/2 182/2/2 184/2/2
f 183/10/2 184/10/2 185/10/2
f 185/10/2 184/10/2 186/10/2
f 185/2/2 186/2/2 187/2/2
f 187/2/2 186/2/2 188/2/2
f 187/10/2 188/10/2 189/10/2
f 189/10/2 188/10/2 190/10/2
f 189/2/2 190/2/2 191/2/2
f 191/2/2 190/2/2 192/2/2
f 191/10/2 192/10/2 193/10/2
f 193/10/2 192/10/2 194/10/2
f 193/2/2 194/2/2 195/2/2
f 195/2/2 194/2/2 196/2/2
f 195/10/2 196/10/2 197/10/2
f 197/10/2 196/10/2 198/10/2
f 197/2/2 198/2/2 199/2/2
f 199/2/2 198/2/2 200/2/2
f 203/9/3 202/9/3 201/9/3
f 204/9/3 202/9/3 203/9/3
f 205/7/3 204/7/3 203/7/3
f 206/7/3 204/7/3 205/7/3
f 207/9/3 203/9/3 201/9/3
f 207/7/3 205/7/3 203/7/3
f 208/3/3 206/3/3 205/3/3
f 208/7/3 205/7/3 207/7/3
f 209/7/3 204/7/3 206/7/3
f 209/3/3 206/3/3 208/3/3
f 210/1/3 208/1/3 207/1/3
f 210/9/3 207/9/3 201/9/3
f 211/6/3 209/6/3 208/6/3
f 211/1/3 208/1/3 210/1/3
f 212/7/3 204/7/3 209/7/3
f 212/6/3 209/6/3 211/6/3
f 213/7/3 211/7/3 210/7/3
f 213/1/3 212/1/3 211/1/3
f 214/7/3 204/7/3 212/7/3
f 214/1/3 212/1/3 213/1/3
f 215/7/3 213/7/3 210/7/3
f 215/9/3 210/9/3 201/9/3
f 215/7/3 214/7/3 213/7/3
f 216/7/3 204/7/3 214/7/3
f 216/7/3 214/7/3 215/7/3
f 216/9/3 202/9/3 204/9/3
f 217/9/3 215/9/3 201/9/3
f 217/9/3 216/9/3 215/9/3
f 218/9/3 202/9/3 216/9/3
f 218/9/3 216/9/3 217/9/3
f 221/8/3 220/8/3 219/8/3
f 222/8/3 220/8/3 221/8/3
f 225/3/3 224/3/3 223/3/3
f 226/3/3 224/3/3 225/3/3
f 229/4/3 228/4/3 227/4/3
f 230/4/3 228/4/3 229/4/3
f 233/9/3 232/9/3 231/9/3
f 234/9/3 232/9/3 233/9/3
f 237/9/3 236/9/3 235/9/3
f 238/9/3 236/9/3 237/9/3
f 249/2/3 248/2/3 247/2/3
f 250/2/3 248/2/3 249/2/3
f 253/2/3 240/2/3 239/2/3
f 254/10/3 241/10/3 240/10/3
f 254/2/3 240/2/3 253/2/3
f 255/2/3 242/2/3 241/2/3
f 255/10/3 241/10/3 254/10/3
f 256/10/3 243/10/3 242/10/3
f 256/2/3 242/2/3 255/2/3
f 257/2/3 244/2/3 243/2/3
f 257/10/3 243/10/3 256/10/3
f 258/10/3 245/10/3 244/10/3
f 258/2/3 244/2/3 257/2/3
f 259/2/3 246/2/3 245/2/3
f 259/10/3 245/10/3 258/10/3
f 260/10/3 247/10/3 246/10/3
f 260/2/3 246/2/3 259/2/3
f 261/2/3 249/2/3 247/2/3
f 261/10/3 247/10/3 260/10/3
f 262/2/3 249/2/3 261/2/3
f 263/3/3 252/3/3 251/3/3
f 264/3/3 252/3/3 263/3/3
f 267/4/3 266/4/3 265/4/3
f 268/4/3 266/4/3 267/4/3
f 269/2/3 249/2/3 262/2/3
f 270/2/3 248/2/3 250/2/3
f 271/2/3 269/2/3 262/2/3
f 271/2/3 270/2/3 269/2/3
f 272/2/3 248/2/3 270/2/3
f 272/2/3 270/2/3 271/2/3
f 273/2/3 271/2/3 262/2/3
f 274/2/3 248/2/3 272/2/3
f 275/2/3 274/2/3 273/2/3
f 276/2/3 274/2/3 275/2/3
f 277/2/3 275/2/3 273/2/3
f 278/2/3 274/2/3 276/2/3
f 279/2/3 277/2/3 273/2/3
f 279/2/3 278/2/3 277/2/3
f 280/2/3 274/2/3 278/2/3
f 280/2/3 278/2/3 279/2/3
f 281/2/3 279/2/3 273/2/3
f 282/2/3 274/2/3 280/2/3
f 283/2/3 281/2/3 273/2/3
f 283/2/3 282/2/3 281/2/3
f 284/2/3 274/2/3 282/2/3
f 284/2/3 282/2/3 283/2/3
f 285/2/3 253/2/3 239/2/3
f 294/2/3 273/2/3 262/2/3
f 294/2/3 283/2/3 273/2/3
f 295/2/3 283/2/3 294/2/3
f 295/2/3 294/2/3 293/2/3
f 296/2/3 274/2/3 284/2/3
f 297/2/3 285/2/3 239/2/3
f 297/2/3 286/2/3 285/2/3
f 298/10/3 287/10/3 286/10/3
f 298/2/3 286/2/3 297/2/3
f 299/2/3 288/2/3 287/2/3
f 299/10/3 287/10/3 298/10/3
f 300/10/3 289/10/3 288/10/3
f 300/2/3 288/2/3 299/2/3
f 301/2/3 290/2/3 289/2/3
f 301/10/3 289/10/3 300/10/3
f 302/10/3 291/10/3 290/10/3
f 302/2/3 290/2/3 301/2/3
f 303/2/3 292/2/3 291/2/3
f 303/10/3 291/10/3 302/10/3
f 304/10/3 293/10/3 292/10/3
f 304/2/3 292/2/3 303/2/3
f 305/2/3 295/2/3 293/2/3
f 305/10/3 293/10/3 304/10/3
f 305/2/3 296/2/3 295/2/3
f 306/2/3 248/2/3 274/2/3
f 306/2/3 296/2/3 305/2/3
f 306/2/3 274/2/3 296/2/3
f 309/9/3 308/9/3 307/9/3
f 310/9/3 308/9/3 309/9/3
f 311/9/3 309/9/3 307/9/3
f 312/9/3 308/9/3 310/9/3
f 313/9/3 311/9/3 307/9/3
f 313/9/3 312/9/3 311/9/3
f 314/9/3 308/9/3 312/9/3
f 314/9/3 312/9/3 313/9/3
f 315/9/3 313/9/3 307/9/3
f 316/9/3 308/9/3 314/9/3
f 317/9/3 315/9/3 307/9/3
f 317/9/3 316/9/3 315/9/3
f 318/9/3 308/9/3 316/9/3
f 318/9/3 316/9/3 317/9/3
f 321/9/3 320/9/3 319/9/3
f 322/9/3 320/9/3 321/9/3
f 323/9/3 321/9/3 319/9/3
f 324/9/3 320/9/3 322/9/3
f 325/9/3 323/9/3 319/9/3
f 325/9/3 324/9/3 323/9/3
f 326/9/3 320/9/3 324/9/3
f 326/9/3 324/9/3 325/9/3
f 327/9/3 325/9/3 319/9/3
f 328/9/3 320/9/3 326/9/3
f 329/9/3 327/9/3 319/9/3
f 329/9/3 328/9/3 327/9/3
f 330/9/3 320/9/3 328/9/3
f 330/9/3 328/9/3 329/9/3
f 331/9/3 329/9/3 319/9/3
f 332/9/3 320/9/3 330/9/3
f 333/9/3 331/9/3 319/9/3
f 333/9/3 332/9/3 331/9/3
f 334/9/3 320/9/3 332/9/3
f 334/9/3 332/9/3 333/9/3
f 335/2/4 336/2/4 345/2/4
f 336/10/4 337/10/4 346/10/4
f 345/2/4 336/2/4 346/2/4
f 337/2/4 338/2/4 347/2/4
f 346/10/4 337/10/4 347/10/4
f 338/10/4 339/10/4 348/10/4
f 347/2/4 338/2/4 348/2/4
f 339/2/4 340/2/4 349/2/4
f 348/10/4 339/10/4 349/10/4
f 340/10/4 341/10/4 350/10/4
f 349/2/4 340/2/4 350/2/4
f 341/2/4 342/2/4 351/2/4
f 350/10/4 341/10/4 351/10/4
f 342/10/4 343/10/4 352/10/4
f 351/2/4 342/2/4 352/2/4
f 343/2/4 344/2/4 353/2/4
f 352/10/4 343/10/4 353/10/4
f 353/2/4 344/2/4 354/2/4
f 335/2/4 345/2/4 355/2/4
f 354/2/4 344/2/4 364/2/4
f 335/2/4 355/2/4 365/2/4
f 355/2/4 356/2/4 365/2/4
f 356/10/4 357/10/4 366/10/4
f 365/2/4 356/2/4 366/2/4
f 357/2/4 358/2/4 367/2/4
f 366/10/4 357/10/4 367/10/4
f 358/10/4 359/10/4 368/10/4
f 367/2/4 358/2/4 368/2/4
f 359/2/4 360/2/4 369/2/4
f 368/10/4 359/10/4 369/10/4
f 360/10/4 361/10/4 370/10/4
f 369/2/4 360/2/4 370/2/4
f 361/2/4 362/2/4 371/2/4
f 370/10/4 361/10/4 371/10/4
f 362/10/4 363/10/4 372/10/4
f 371/2/4 362/2/4 372/2/4
f 363/2/4 364/2/4 373/2/4
f 372/10/4 363/10/4 373/10/4
f 364/2/4 344/2/4 374/2/4
f 373/2/4 364/2/4 374/2/4
f 377/2/5 376/2/5 375/2/5
f 378/2/5 376/2/5 377/2/5
f 381/2/5 380/2/5 379/2/5
f 382/2/5 380/2/5 381/2/5
f 383/9/5 382/9/5 381/9/5
f 384/9/5 382/9/5 383/9/5
f 385/2/5 384/2/5 383/2/5
f 386/2/5 384/2/5 385/2/5
f 389/9/5 388/9/5 387/9/5
f 390/9/5 388/9/5 389/9/5
f 395/9/5 392/9/5 391/9/5
f 396/9/5 392/9/5 395/9/5
f 397/9/5 394/9/5 393/9/5
f 398/9/5 394/9/5 397/9/5
f 409/3/5 406/3/5 405/3/5
f 410/3/5 406/3/5 409/3/5
f 411/4/5 408/4/5 407/4/5
f 412/4/5 408/4/5 411/4/5
f 413/8/5 400/8/5 399/8/5
f 414/8/5 400/8/5 413/8/5
f 415/3/5 402/3/5 401/3/5
f 416/3/5 402/3/5 415/3/5
f 417/4/5 404/4/5 403/4/5
f 418/4/5 404/4/5 417/4/5
f 423/2/5 420/2/5 419/2/5
f 424/2/5 420/2/5 423/2/5
f 425/2/5 422/2/5 421/2/5
f 426/2/5 422/2/5 425/2/5
f 427/2/6 428/2/6 429/2/6
f 429/2/6 428/2/6 430/2/6
f 429/9/6 430/9/6 431/9/6
f 431/9/6 430/9/6 432/9/6
f 431/2/6 432/2/6 433/2/6
f 433/2/6 432/2/6 434/2/6
f 435/2/6 436/2/6 439/2/6
f 439/2/6 436/2/6 440/2/6
f 437/2/6 438/2/6 441/2/6
f 441/2/6 438/2/6 442/2/6
f 449/3/6 450/3/6 453/3/6
f 453/3/6 450/3/6 454/3/6
f 451/4/6 452/4/6 455/4/6
f 455/4/6 452/4/6 456/4/6
f 443/8/6 444/8/6 457/8/6
f 457/8/6 444/8/6 458/8/6
f 445/3/6 446/3/6 459/3/6
f 459/3/6 446/3/6 460/3/6
f 447/4/6 448/4/6 461/4/6
f 461/4/6 448/4/6 462/4/6
f 463/9/6 464/9/6 467/9/6
f 467/9/6 464/9/6 468/9/6
f 465/9/6 466/9/6 469/9/6
f 469/9/6 466/9/6 470/9/6
f 471/9/6 472/9/6 473/9/6
f 473/9/6 472/9/6 474/9/6
f 475/2/6 476/2/6 477/2/6
f 477/2/6 476/2/6 478/2/6
