# MagicaVoxel @ Ephtracy

# group
o 

# material
mtllib untitled-1.mtl
usemtl palette

# normals
vn 1 0 0
vn -1 0 0
vn 0 0 1
vn 0 0 -1
vn 0 -1 0
vn 0 1 0

# texcoords
vt 0.0644531 0.5
vt 0.642578 0.5
vt 0.673828 0.5

# verts
v 1.5 0.1 0.4
v 1.5 0.1 -0.7
v 1.5 0.4 0.4
v 1.5 0.4 -0.7
v 1.4 0.4 0.2
v 1.4 0.4 -0.7
v 1.4 0.5 0.2
v 1.4 0.5 -0.7
v 1.4 0.8 0.1
v 1.4 0.8 -0.7
v 1.4 1.3 0.1
v 1.4 1.3 0
v 1.4 1.5 0.2
v 1.4 1.5 0.1
v 1.4 1.6 0
v 1.4 1.6 -0.7
v 1.4 1.7 0.2
v 1.4 1.7 0
v 1.4 2.2 0.1
v 1.4 2.2 -0.7
v 1.4 3.1 0.1
v 1.4 3.1 -0.7
v 1.3 0.5 -0.1
v 1.3 0.5 -0.6
v 1.3 0.8 -0.1
v 1.3 0.8 -0.6
v 1.3 1.2 0.2
v 1.3 1.2 0.1
v 1.3 1.3 0.1
v 1.3 1.5 0.2
v 1.3 1.5 0.1
v 1.3 1.6 0
v 1.3 1.6 -0.6
v 1.3 1.7 0.1
v 1.3 1.7 0
v 1.3 1.8 0.1
v 1.3 1.8 0
v 1.3 2.1 0
v 1.3 2.1 -0.6
v 1.3 2.2 0
v 1.3 2.2 -0.6
v 1.3 3.1 0
v 1.3 3.1 -0.6
v 1.3 3.3 0
v 1.3 3.3 -0.6
v 0.9 0.5 -0.1
v 0.9 0.5 -0.6
v 0.9 0.8 -0.1
v 0.9 0.8 -0.6
v 0.9 1.2 0.2
v 0.9 1.2 0.1
v 0.9 1.3 0.1
v 0.9 1.5 0.2
v 0.9 1.5 0.1
v 0.9 1.6 0
v 0.9 1.6 -0.6
v 0.9 1.7 0.1
v 0.9 1.7 0
v 0.9 1.8 0.1
v 0.9 1.8 0
v 0.9 2.1 0
v 0.9 2.1 -0.6
v 0.9 2.2 0
v 0.9 2.2 -0.6
v 0.8 0.4 0.2
v 0.8 0.4 -0.7
v 0.8 0.5 0.2
v 0.8 0.5 -0.7
v 0.8 0.8 0.1
v 0.8 0.8 -0.7
v 0.8 1.3 0.1
v 0.8 1.3 0
v 0.8 1.5 0.2
v 0.8 1.5 0.1
v 0.8 1.6 0
v 0.8 1.6 -0.7
v 0.8 1.7 0.2
v 0.8 1.7 0
v 0.8 2.2 0.1
v 0.8 2.2 -0.7
v 0.8 3.1 0.1
v 0.8 3.1 0
v 0.8 3.1 -0.6
v 0.8 3.1 -0.7
v 0.8 3.3 0
v 0.8 3.3 -0.6
v 0.7 0.1 0.4
v 0.7 0.1 -0.7
v 0.7 0.4 0.4
v 0.7 0.4 -0.7
v 1.5 0.1 0.4
v 1.5 0.4 0.4
v 0.7 0.1 0.4
v 0.7 0.4 0.4
v 1.4 0.4 0.2
v 1.4 0.5 0.2
v 1.4 1.5 0.2
v 1.4 1.7 0.2
v 1.3 1.2 0.2
v 1.3 1.5 0.2
v 0.9 1.2 0.2
v 0.9 1.5 0.2
v 0.8 0.4 0.2
v 0.8 0.5 0.2
v 0.8 1.5 0.2
v 0.8 1.7 0.2
v 1.4 0.8 0.1
v 1.4 1.3 0.1
v 1.4 1.5 0.1
v 1.4 2.2 0.1
v 1.4 3.1 0.1
v 1.3 1.2 0.1
v 1.3 1.3 0.1
v 1.3 1.5 0.1
v 1.3 1.7 0.1
v 1.3 1.8 0.1
v 0.9 1.2 0.1
v 0.9 1.3 0.1
v 0.9 1.5 0.1
v 0.9 1.7 0.1
v 0.9 1.8 0.1
v 0.8 0.8 0.1
v 0.8 1.3 0.1
v 0.8 1.5 0.1
v 0.8 2.2 0.1
v 0.8 3.1 0.1
v 1.3 1.8 0
v 1.3 2.1 0
v 1.3 2.2 0
v 1.3 3.1 0
v 1.3 3.3 0
v 0.9 1.8 0
v 0.9 2.1 0
v 0.9 2.2 0
v 0.8 3.1 0
v 0.8 3.3 0
v 1.3 0.5 -0.1
v 1.3 0.8 -0.1
v 0.9 0.5 -0.1
v 0.9 0.8 -0.1
v 1.4 1.6 0
v 1.4 1.7 0
v 1.3 1.6 0
v 1.3 1.7 0
v 0.9 1.6 0
v 0.9 1.7 0
v 0.8 1.6 0
v 0.8 1.7 0
v 1.3 0.5 -0.6
v 1.3 0.8 -0.6
v 1.3 1.6 -0.6
v 1.3 2.1 -0.6
v 1.3 2.2 -0.6
v 1.3 3.1 -0.6
v 1.3 3.3 -0.6
v 0.9 0.5 -0.6
v 0.9 0.8 -0.6
v 0.9 1.6 -0.6
v 0.9 2.1 -0.6
v 0.9 2.2 -0.6
v 0.8 3.1 -0.6
v 0.8 3.3 -0.6
v 1.5 0.1 -0.7
v 1.5 0.4 -0.7
v 1.4 0.4 -0.7
v 1.4 0.5 -0.7
v 1.4 0.8 -0.7
v 1.4 1.6 -0.7
v 1.4 2.2 -0.7
v 1.4 3.1 -0.7
v 0.8 0.4 -0.7
v 0.8 0.5 -0.7
v 0.8 0.8 -0.7
v 0.8 1.6 -0.7
v 0.8 2.2 -0.7
v 0.8 3.1 -0.7
v 0.7 0.1 -0.7
v 0.7 0.4 -0.7
v 1.5 0.1 0.4
v 0.7 0.1 0.4
v 1.3 0.1 -0.2
v 1 0.1 -0.2
v 1.3 0.1 -0.5
v 1 0.1 -0.5
v 1.5 0.1 -0.7
v 0.7 0.1 -0.7
v 1.4 0.8 0.1
v 0.8 0.8 0.1
v 1.3 0.8 -0.1
v 0.9 0.8 -0.1
v 1.3 0.8 -0.6
v 0.9 0.8 -0.6
v 1.4 0.8 -0.7
v 0.8 0.8 -0.7
v 1.3 1.2 0.2
v 0.9 1.2 0.2
v 1.3 1.2 0.1
v 0.9 1.2 0.1
v 1.4 1.5 0.2
v 1.3 1.5 0.2
v 0.9 1.5 0.2
v 0.8 1.5 0.2
v 1.4 1.5 0.1
v 1.3 1.5 0.1
v 0.9 1.5 0.1
v 0.8 1.5 0.1
v 1.4 2.2 0.1
v 0.8 2.2 0.1
v 1.3 2.2 0
v 0.9 2.2 0
v 1.3 2.2 -0.6
v 0.9 2.2 -0.6
v 1.4 2.2 -0.7
v 0.8 2.2 -0.7
v 1.5 0.4 0.4
v 0.7 0.4 0.4
v 1.4 0.4 0.2
v 0.8 0.4 0.2
v 1.5 0.4 -0.7
v 1.4 0.4 -0.7
v 0.8 0.4 -0.7
v 0.7 0.4 -0.7
v 1.4 0.5 0.2
v 0.8 0.5 0.2
v 1.3 0.5 -0.1
v 0.9 0.5 -0.1
v 1.3 0.5 -0.6
v 0.9 0.5 -0.6
v 1.4 0.5 -0.7
v 0.8 0.5 -0.7
v 1.4 1.6 0
v 1.3 1.6 0
v 0.9 1.6 0
v 0.8 1.6 0
v 1.3 1.6 -0.6
v 0.9 1.6 -0.6
v 1.4 1.6 -0.7
v 0.8 1.6 -0.7
v 1.4 1.7 0.2
v 0.8 1.7 0.2
v 1.3 1.7 0.1
v 0.9 1.7 0.1
v 1.4 1.7 0
v 1.3 1.7 0
v 0.9 1.7 0
v 0.8 1.7 0
v 1.3 1.8 0.1
v 0.9 1.8 0.1
v 1.3 1.8 0
v 0.9 1.8 0
v 1.4 3.1 0.1
v 0.8 3.1 0.1
v 1.3 3.1 0
v 0.8 3.1 0
v 1.3 3.1 -0.6
v 0.8 3.1 -0.6
v 1.4 3.1 -0.7
v 0.8 3.1 -0.7
v 1.3 3.3 0
v 0.8 3.3 0
v 1.3 3.3 -0.6
v 0.8 3.3 -0.6

# faces
f 1/3/1 2/3/1 3/3/1
f 3/3/1 2/3/1 4/3/1
f 5/3/1 6/3/1 7/3/1
f 7/3/1 6/3/1 8/3/1
f 9/1/1 10/1/1 11/1/1
f 11/1/1 10/1/1 12/1/1
f 11/2/1 12/2/1 14/2/1
f 12/1/1 10/1/1 15/1/1
f 13/2/1 14/2/1 15/2/1
f 14/2/1 12/2/1 15/2/1
f 15/1/1 10/1/1 16/1/1
f 13/2/1 15/2/1 17/2/1
f 17/2/1 15/2/1 18/2/1
f 19/1/1 20/1/1 21/1/1
f 21/1/1 20/1/1 22/1/1
f 23/3/1 24/3/1 25/3/1
f 25/3/1 24/3/1 26/3/1
f 27/2/1 28/2/1 29/2/1
f 27/2/1 29/2/1 30/2/1
f 30/2/1 29/2/1 31/2/1
f 32/3/1 33/3/1 35/3/1
f 34/2/1 35/2/1 36/2/1
f 35/3/1 33/3/1 37/3/1
f 36/2/1 35/2/1 37/2/1
f 37/3/1 33/3/1 38/3/1
f 38/3/1 33/3/1 39/3/1
f 38/1/1 39/1/1 40/1/1
f 40/1/1 39/1/1 41/1/1
f 42/1/1 43/1/1 44/1/1
f 44/1/1 43/1/1 45/1/1
f 48/3/2 47/3/2 46/3/2
f 49/3/2 47/3/2 48/3/2
f 52/2/2 51/2/2 50/2/2
f 53/2/2 52/2/2 50/2/2
f 54/2/2 52/2/2 53/2/2
f 58/3/2 56/3/2 55/3/2
f 59/2/2 58/2/2 57/2/2
f 60/3/2 56/3/2 58/3/2
f 60/2/2 58/2/2 59/2/2
f 61/3/2 56/3/2 60/3/2
f 62/3/2 56/3/2 61/3/2
f 63/1/2 62/1/2 61/1/2
f 64/1/2 62/1/2 63/1/2
f 67/3/2 66/3/2 65/3/2
f 68/3/2 66/3/2 67/3/2
f 71/1/2 70/1/2 69/1/2
f 72/1/2 70/1/2 71/1/2
f 74/2/2 72/2/2 71/2/2
f 75/1/2 70/1/2 72/1/2
f 75/2/2 74/2/2 73/2/2
f 75/2/2 72/2/2 74/2/2
f 76/1/2 70/1/2 75/1/2
f 77/2/2 75/2/2 73/2/2
f 78/2/2 75/2/2 77/2/2
f 81/1/2 80/1/2 79/1/2
f 82/1/2 80/1/2 81/1/2
f 83/1/2 80/1/2 82/1/2
f 84/1/2 80/1/2 83/1/2
f 85/1/2 83/1/2 82/1/2
f 86/1/2 83/1/2 85/1/2
f 89/3/2 88/3/2 87/3/2
f 90/3/2 88/3/2 89/3/2
f 91/3/3 92/3/3 93/3/3
f 93/3/3 92/3/3 94/3/3
f 97/2/3 98/2/3 100/2/3
f 99/2/3 100/2/3 101/2/3
f 100/2/3 98/2/3 102/2/3
f 101/2/3 100/2/3 102/2/3
f 95/3/3 96/3/3 103/3/3
f 103/3/3 96/3/3 104/3/3
f 102/2/3 98/2/3 105/2/3
f 105/2/3 98/2/3 106/2/3
f 107/1/3 108/1/3 112/1/3
f 108/2/3 109/2/3 113/2/3
f 112/1/3 108/1/3 113/1/3
f 113/2/3 109/2/3 114/2/3
f 107/1/3 112/1/3 117/1/3
f 115/2/3 116/2/3 120/2/3
f 120/2/3 116/2/3 121/2/3
f 107/1/3 117/1/3 122/1/3
f 117/1/3 118/1/3 122/1/3
f 118/2/3 119/2/3 123/2/3
f 122/1/3 118/1/3 123/1/3
f 123/2/3 119/2/3 124/2/3
f 110/1/3 111/1/3 125/1/3
f 125/1/3 111/1/3 126/1/3
f 127/3/3 128/3/3 132/3/3
f 128/1/3 129/1/3 133/1/3
f 132/3/3 128/3/3 133/3/3
f 133/1/3 129/1/3 134/1/3
f 130/1/3 131/1/3 135/1/3
f 135/1/3 131/1/3 136/1/3
f 137/3/3 138/3/3 139/3/3
f 139/3/3 138/3/3 140/3/3
f 143/2/4 142/2/4 141/2/4
f 144/2/4 142/2/4 143/2/4
f 147/2/4 146/2/4 145/2/4
f 148/2/4 146/2/4 147/2/4
f 156/3/4 150/3/4 149/3/4
f 157/3/4 150/3/4 156/3/4
f 158/3/4 152/3/4 151/3/4
f 159/1/4 153/1/4 152/1/4
f 159/3/4 152/3/4 158/3/4
f 160/1/4 153/1/4 159/1/4
f 161/1/4 155/1/4 154/1/4
f 162/1/4 155/1/4 161/1/4
f 165/3/4 164/3/4 163/3/4
f 171/3/4 165/3/4 163/3/4
f 171/3/4 166/3/4 165/3/4
f 172/3/4 166/3/4 171/3/4
f 173/1/4 168/1/4 167/1/4
f 174/1/4 168/1/4 173/1/4
f 175/1/4 170/1/4 169/1/4
f 176/1/4 170/1/4 175/1/4
f 177/3/4 171/3/4 163/3/4
f 178/3/4 171/3/4 177/3/4
f 179/3/5 180/3/5 181/3/5
f 181/3/5 180/3/5 182/3/5
f 179/3/5 181/3/5 183/3/5
f 181/1/5 182/1/5 183/1/5
f 182/3/5 180/3/5 184/3/5
f 183/1/5 182/1/5 184/1/5
f 179/3/5 183/3/5 185/3/5
f 183/3/5 184/3/5 185/3/5
f 184/3/5 180/3/5 186/3/5
f 185/3/5 184/3/5 186/3/5
f 187/1/5 188/1/5 189/1/5
f 189/1/5 188/1/5 190/1/5
f 187/1/5 189/1/5 191/1/5
f 190/1/5 188/1/5 192/1/5
f 187/1/5 191/1/5 193/1/5
f 191/1/5 192/1/5 193/1/5
f 192/1/5 188/1/5 194/1/5
f 193/1/5 192/1/5 194/1/5
f 195/2/5 196/2/5 197/2/5
f 197/2/5 196/2/5 198/2/5
f 199/2/5 200/2/5 203/2/5
f 203/2/5 200/2/5 204/2/5
f 201/2/5 202/2/5 205/2/5
f 205/2/5 202/2/5 206/2/5
f 207/1/5 208/1/5 209/1/5
f 209/1/5 208/1/5 210/1/5
f 207/1/5 209/1/5 211/1/5
f 210/1/5 208/1/5 212/1/5
f 207/1/5 211/1/5 213/1/5
f 211/1/5 212/1/5 213/1/5
f 212/1/5 208/1/5 214/1/5
f 213/1/5 212/1/5 214/1/5
f 217/3/6 216/3/6 215/3/6
f 218/3/6 216/3/6 217/3/6
f 219/3/6 217/3/6 215/3/6
f 220/3/6 217/3/6 219/3/6
f 221/3/6 216/3/6 218/3/6
f 222/3/6 216/3/6 221/3/6
f 225/3/6 224/3/6 223/3/6
f 226/3/6 224/3/6 225/3/6
f 227/3/6 225/3/6 223/3/6
f 228/3/6 224/3/6 226/3/6
f 229/3/6 227/3/6 223/3/6
f 229/3/6 228/3/6 227/3/6
f 230/3/6 224/3/6 228/3/6
f 230/3/6 228/3/6 229/3/6
f 235/1/6 232/1/6 231/1/6
f 236/1/6 234/1/6 233/1/6
f 237/1/6 235/1/6 231/1/6
f 237/1/6 236/1/6 235/1/6
f 238/1/6 234/1/6 236/1/6
f 238/1/6 236/1/6 237/1/6
f 241/2/6 240/2/6 239/2/6
f 242/2/6 240/2/6 241/2/6
f 243/2/6 241/2/6 239/2/6
f 244/2/6 241/2/6 243/2/6
f 245/2/6 240/2/6 242/2/6
f 246/2/6 240/2/6 245/2/6
f 249/2/6 248/2/6 247/2/6
f 250/2/6 248/2/6 249/2/6
f 253/1/6 252/1/6 251/1/6
f 254/1/6 252/1/6 253/1/6
f 255/1/6 253/1/6 251/1/6
f 257/1/6 255/1/6 251/1/6
f 257/1/6 256/1/6 255/1/6
f 258/1/6 256/1/6 257/1/6
f 261/1/6 260/1/6 259/1/6
f 262/1/6 260/1/6 261/1/6
