# MagicaVoxel @ Ephtracy

# group
o 

# material
mtllib untitled-3.mtl
usemtl palette

# normals
vn 0 1 0
vn 0 -1 0
vn 0 0 1
vn 0 0 -1
vn -1 0 0
vn 1 0 0

# texcoords
vt 0.0644531 0.5
vt 0.673828 0.5

# verts
v -0.3 3.3 0.3
v -0.3 3.3 -0.7
v 0.3 3.3 0.3
v 0.3 3.3 -0.7
v 0.8 3.3 0.3
v 0.8 3.3 -0.7
v 1.4 3.3 0.3
v 1.4 3.3 -0.7
v -1.1 3.2 0
v -1.1 3.2 -0.4
v -1 3.2 0.1
v -1 3.2 0
v -1 3.2 -0.4
v -1 3.2 -0.5
v -0.8 3.2 0.1
v -0.8 3.2 0
v -0.8 3.2 -0.4
v -0.8 3.2 -0.5
v -0.7 3.2 0
v -0.7 3.2 -0.4
v -0.4 3.2 0.2
v -0.4 3.2 -0.6
v -0.3 3.2 0.2
v -0.3 3.2 -0.6
v 0.3 3.2 0.2
v 0.3 3.2 -0.6
v 0.4 3.2 0.2
v 0.4 3.2 -0.6
v 1.4 3.2 0.2
v 1.4 3.2 -0.6
v 1.5 3.2 0.2
v 1.5 3.2 -0.6
v -1.2 3.1 0
v -1.2 3.1 -0.4
v -1.1 3.1 0.1
v -1.1 3.1 0
v -1.1 3.1 -0.4
v -1.1 3.1 -0.5
v -1 3.1 0.1
v -1 3.1 0
v -1 3.1 -0.4
v -1 3.1 -0.5
v -0.8 3.1 0.1
v -0.8 3.1 0
v -0.8 3.1 -0.4
v -0.8 3.1 -0.5
v -0.7 3.1 0.1
v -0.7 3.1 0
v -0.7 3.1 -0.4
v -0.7 3.1 -0.5
v -0.4 3.1 0
v -0.4 3.1 -0.4
v 0.4 3.1 0.1
v 0.4 3.1 -0.5
v 0.8 3.1 0.1
v 0.8 3.1 -0.5
v -1.3 3 0
v -1.3 3 -0.4
v -1.2 3 0.1
v -1.2 3 0
v -1.2 3 -0.4
v -1.2 3 -0.5
v -1.1 3 0.1
v -1.1 3 0
v -1.1 3 -0.4
v -1.1 3 -0.5
v -1.4 2.9 0
v -1.4 2.9 -0.4
v -1.3 2.9 0.1
v -1.3 2.9 0
v -1.3 2.9 -0.4
v -1.3 2.9 -0.5
v -1.2 2.9 0.1
v -1.2 2.9 0
v -1.2 2.9 -0.4
v -1.2 2.9 -0.5
v -1.5 2.8 0
v -1.5 2.8 -0.4
v -1.4 2.8 0.1
v -1.4 2.8 0
v -1.4 2.8 -0.4
v -1.4 2.8 -0.5
v -1.3 2.8 0.1
v -1.3 2.8 0
v -1.3 2.8 -0.4
v -1.3 2.8 -0.5
v -1.5 2.7 0.1
v -1.5 2.7 0
v -1.5 2.7 -0.4
v -1.5 2.7 -0.5
v -1.4 2.7 0.1
v -1.4 2.7 0
v -1.4 2.7 -0.4
v -1.4 2.7 -0.5
v -1.1 2.6 -0.1
v -1.1 2.6 -0.2
v -1 2.6 0
v -1 2.6 -0.1
v -1 2.6 -0.2
v -1 2.6 -0.3
v -0.9 2.6 0.1
v -0.9 2.6 0
v -0.9 2.6 -0.3
v -0.9 2.6 -0.4
v -0.8 2.6 0.1
v -0.8 2.6 -0.4
v -1.1 2.9 0.1
v -1.1 2.9 -0.5
v -0.9 2.9 0.1
v -0.9 2.9 -0.5
v -1.2 2.8 0.1
v -1.2 2.8 -0.5
v -1.1 2.8 0.1
v -1.1 2.8 -0.5
v -0.9 2.8 0.1
v -0.9 2.8 -0.5
v -0.8 2.8 0.1
v -0.8 2.8 -0.5
v -1.3 2.7 0.1
v -1.3 2.7 -0.5
v -1.2 2.7 0.1
v -1.2 2.7 -0.5
v -0.7 2.7 0
v -0.7 2.7 -0.4
v -0.4 2.7 0
v -0.4 2.7 -0.4
v 0.4 2.7 0.1
v 0.4 2.7 -0.5
v 0.8 2.7 0.1
v 0.8 2.7 -0.5
v -1.5 2.6 0.1
v -1.5 2.6 -0.5
v -1.3 2.6 0.1
v -1.3 2.6 -0.5
v -0.8 2.6 -0.4
v -0.8 2.6 -0.5
v -0.7 2.6 -0.4
v -0.7 2.6 -0.5
v -0.4 2.6 0.2
v -0.4 2.6 -0.6
v -0.3 2.6 0.2
v -0.3 2.6 -0.6
v 0.3 2.6 0.2
v 0.3 2.6 -0.6
v 0.4 2.6 0.2
v 0.4 2.6 -0.6
v -1.1 2.5 -0.1
v -1.1 2.5 -0.2
v -1 2.5 0
v -1 2.5 -0.1
v -1 2.5 -0.2
v -1 2.5 -0.3
v -0.9 2.5 0.1
v -0.9 2.5 0
v -0.9 2.5 -0.3
v -0.9 2.5 -0.4
v -0.7 2.5 0.1
v -0.7 2.5 -0.4
v -0.3 2.5 0.3
v -0.3 2.5 -0.7
v 0.3 2.5 0.3
v 0.3 2.5 -0.7
v 0.8 2.5 0.3
v 0.8 2.5 -0.7
v 1.4 2.5 0.3
v 1.4 2.5 0.2
v 1.4 2.5 -0.6
v 1.4 2.5 -0.7
v 1.5 2.5 0.2
v 1.5 2.5 -0.6
v -0.3 3.3 0.3
v 0.3 3.3 0.3
v 0.8 3.3 0.3
v 1.4 3.3 0.3
v -0.3 2.5 0.3
v 0.3 2.5 0.3
v 0.8 2.5 0.3
v 1.4 2.5 0.3
v -0.4 3.2 0.2
v -0.3 3.2 0.2
v 0.3 3.2 0.2
v 0.4 3.2 0.2
v 1.4 3.2 0.2
v 1.5 3.2 0.2
v -0.4 2.6 0.2
v -0.3 2.6 0.2
v 0.3 2.6 0.2
v 0.4 2.6 0.2
v 1.4 2.5 0.2
v 1.5 2.5 0.2
v -1 3.2 0.1
v -0.8 3.2 0.1
v -1.1 3.1 0.1
v -1 3.1 0.1
v -0.8 3.1 0.1
v -0.7 3.1 0.1
v 0.4 3.1 0.1
v 0.8 3.1 0.1
v -1.2 3 0.1
v -1.1 3 0.1
v -1.3 2.9 0.1
v -1.2 2.9 0.1
v -1.1 2.9 0.1
v -0.9 2.9 0.1
v -1.4 2.8 0.1
v -1.3 2.8 0.1
v -1.2 2.8 0.1
v -1.1 2.8 0.1
v -0.9 2.8 0.1
v -0.8 2.8 0.1
v -1.5 2.7 0.1
v -1.4 2.7 0.1
v -1.3 2.7 0.1
v -1.2 2.7 0.1
v 0.4 2.7 0.1
v 0.8 2.7 0.1
v -1.5 2.6 0.1
v -1.3 2.6 0.1
v -0.9 2.6 0.1
v -0.8 2.6 0.1
v -0.9 2.5 0.1
v -0.7 2.5 0.1
v -1.1 3.2 0
v -1 3.2 0
v -0.8 3.2 0
v -0.7 3.2 0
v -1.2 3.1 0
v -1.1 3.1 0
v -1 3.1 0
v -0.8 3.1 0
v -0.7 3.1 0
v -0.4 3.1 0
v -1.3 3 0
v -1.2 3 0
v -1.1 3 0
v -1.4 2.9 0
v -1.3 2.9 0
v -1.2 2.9 0
v -1.5 2.8 0
v -1.4 2.8 0
v -1.3 2.8 0
v -1.5 2.7 0
v -1.4 2.7 0
v -0.7 2.7 0
v -0.4 2.7 0
v -1 2.6 0
v -0.9 2.6 0
v -1 2.5 0
v -0.9 2.5 0
v -1.1 2.6 -0.1
v -1 2.6 -0.1
v -1.1 2.5 -0.1
v -1 2.5 -0.1
v -1.1 2.6 -0.2
v -1 2.6 -0.2
v -1.1 2.5 -0.2
v -1 2.5 -0.2
v -1 2.6 -0.3
v -0.9 2.6 -0.3
v -1 2.5 -0.3
v -0.9 2.5 -0.3
v -1.1 3.2 -0.4
v -1 3.2 -0.4
v -0.8 3.2 -0.4
v -0.7 3.2 -0.4
v -1.2 3.1 -0.4
v -1.1 3.1 -0.4
v -1 3.1 -0.4
v -0.8 3.1 -0.4
v -0.7 3.1 -0.4
v -0.4 3.1 -0.4
v -1.3 3 -0.4
v -1.2 3 -0.4
v -1.1 3 -0.4
v -1.4 2.9 -0.4
v -1.3 2.9 -0.4
v -1.2 2.9 -0.4
v -1.5 2.8 -0.4
v -1.4 2.8 -0.4
v -1.3 2.8 -0.4
v -1.5 2.7 -0.4
v -1.4 2.7 -0.4
v -0.7 2.7 -0.4
v -0.4 2.7 -0.4
v -0.9 2.6 -0.4
v -0.8 2.6 -0.4
v -0.7 2.6 -0.4
v -0.9 2.5 -0.4
v -0.7 2.5 -0.4
v -1 3.2 -0.5
v -0.8 3.2 -0.5
v -1.1 3.1 -0.5
v -1 3.1 -0.5
v -0.8 3.1 -0.5
v -0.7 3.1 -0.5
v 0.4 3.1 -0.5
v 0.8 3.1 -0.5
v -1.2 3 -0.5
v -1.1 3 -0.5
v -1.3 2.9 -0.5
v -1.2 2.9 -0.5
v -1.1 2.9 -0.5
v -0.9 2.9 -0.5
v -1.4 2.8 -0.5
v -1.3 2.8 -0.5
v -1.2 2.8 -0.5
v -1.1 2.8 -0.5
v -0.9 2.8 -0.5
v -0.8 2.8 -0.5
v -1.5 2.7 -0.5
v -1.4 2.7 -0.5
v -1.3 2.7 -0.5
v -1.2 2.7 -0.5
v 0.4 2.7 -0.5
v 0.8 2.7 -0.5
v -1.5 2.6 -0.5
v -1.3 2.6 -0.5
v -0.8 2.6 -0.5
v -0.7 2.6 -0.5
v -0.4 3.2 -0.6
v -0.3 3.2 -0.6
v 0.3 3.2 -0.6
v 0.4 3.2 -0.6
v 1.4 3.2 -0.6
v 1.5 3.2 -0.6
v -0.4 2.6 -0.6
v -0.3 2.6 -0.6
v 0.3 2.6 -0.6
v 0.4 2.6 -0.6
v 1.4 2.5 -0.6
v 1.5 2.5 -0.6
v -0.3 3.3 -0.7
v 0.3 3.3 -0.7
v 0.8 3.3 -0.7
v 1.4 3.3 -0.7
v -0.3 2.5 -0.7
v 0.3 2.5 -0.7
v 0.8 2.5 -0.7
v 1.4 2.5 -0.7
v -1.5 2.7 0.1
v -1.5 2.6 0.1
v -1.5 2.8 0
v -1.5 2.7 0
v -1.5 2.8 -0.4
v -1.5 2.7 -0.4
v -1.5 2.7 -0.5
v -1.5 2.6 -0.5
v -1.4 2.8 0.1
v -1.4 2.7 0.1
v -1.4 2.9 0
v -1.4 2.8 0
v -1.4 2.7 0
v -1.4 2.9 -0.4
v -1.4 2.8 -0.4
v -1.4 2.7 -0.4
v -1.4 2.8 -0.5
v -1.4 2.7 -0.5
v -1.3 2.9 0.1
v -1.3 2.8 0.1
v -1.3 3 0
v -1.3 2.9 0
v -1.3 2.8 0
v -1.3 3 -0.4
v -1.3 2.9 -0.4
v -1.3 2.8 -0.4
v -1.3 2.9 -0.5
v -1.3 2.8 -0.5
v -1.2 3 0.1
v -1.2 2.9 0.1
v -1.2 3.1 0
v -1.2 3 0
v -1.2 2.9 0
v -1.2 3.1 -0.4
v -1.2 3 -0.4
v -1.2 2.9 -0.4
v -1.2 3 -0.5
v -1.2 2.9 -0.5
v -1.1 3.1 0.1
v -1.1 3 0.1
v -1.1 3.2 0
v -1.1 3.1 0
v -1.1 3 0
v -1.1 2.6 -0.1
v -1.1 2.5 -0.1
v -1.1 2.6 -0.2
v -1.1 2.5 -0.2
v -1.1 3.2 -0.4
v -1.1 3.1 -0.4
v -1.1 3 -0.4
v -1.1 3.1 -0.5
v -1.1 3 -0.5
v -1 3.2 0.1
v -1 3.1 0.1
v -1 3.2 0
v -1 3.1 0
v -1 2.6 0
v -1 2.5 0
v -1 2.6 -0.1
v -1 2.5 -0.1
v -1 2.6 -0.2
v -1 2.5 -0.2
v -1 2.6 -0.3
v -1 2.5 -0.3
v -1 3.2 -0.4
v -1 3.1 -0.4
v -1 3.2 -0.5
v -1 3.1 -0.5
v -0.9 2.9 0.1
v -0.9 2.8 0.1
v -0.9 2.6 0.1
v -0.9 2.5 0.1
v -0.9 2.6 0
v -0.9 2.5 0
v -0.9 2.6 -0.3
v -0.9 2.5 -0.3
v -0.9 2.6 -0.4
v -0.9 2.5 -0.4
v -0.9 2.9 -0.5
v -0.9 2.8 -0.5
v -0.8 2.8 0.1
v -0.8 2.6 0.1
v -0.8 2.6 -0.4
v -0.8 2.8 -0.5
v -0.8 2.6 -0.5
v -0.4 3.2 0.2
v -0.4 2.6 0.2
v -0.4 3.1 0
v -0.4 2.7 0
v -0.4 3.1 -0.4
v -0.4 2.7 -0.4
v -0.4 3.2 -0.6
v -0.4 2.6 -0.6
v -0.3 3.3 0.3
v -0.3 2.5 0.3
v -0.3 3.2 0.2
v -0.3 2.6 0.2
v -0.3 3.2 -0.6
v -0.3 2.6 -0.6
v -0.3 3.3 -0.7
v -0.3 2.5 -0.7
v 0.8 3.3 0.3
v 0.8 2.5 0.3
v 0.8 3.1 0.1
v 0.8 2.7 0.1
v 0.8 3.1 -0.5
v 0.8 2.7 -0.5
v 0.8 3.3 -0.7
v 0.8 2.5 -0.7
v -1.3 2.7 0.1
v -1.3 2.6 0.1
v -1.3 2.7 -0.5
v -1.3 2.6 -0.5
v -1.2 2.8 0.1
v -1.2 2.7 0.1
v -1.2 2.8 -0.5
v -1.2 2.7 -0.5
v -1.1 2.9 0.1
v -1.1 2.8 0.1
v -1.1 2.9 -0.5
v -1.1 2.8 -0.5
v -0.8 3.2 0.1
v -0.8 3.1 0.1
v -0.8 3.2 0
v -0.8 3.1 0
v -0.8 3.2 -0.4
v -0.8 3.1 -0.4
v -0.8 3.2 -0.5
v -0.8 3.1 -0.5
v -0.7 3.1 0.1
v -0.7 2.5 0.1
v -0.7 3.2 0
v -0.7 3.1 0
v -0.7 2.7 0
v -0.7 3.2 -0.4
v -0.7 3.1 -0.4
v -0.7 2.7 -0.4
v -0.7 2.6 -0.4
v -0.7 2.5 -0.4
v -0.7 3.1 -0.5
v -0.7 2.6 -0.5
v 0.3 3.3 0.3
v 0.3 2.5 0.3
v 0.3 3.2 0.2
v 0.3 2.6 0.2
v 0.3 3.2 -0.6
v 0.3 2.6 -0.6
v 0.3 3.3 -0.7
v 0.3 2.5 -0.7
v 0.4 3.2 0.2
v 0.4 2.6 0.2
v 0.4 3.1 0.1
v 0.4 2.7 0.1
v 0.4 3.1 -0.5
v 0.4 2.7 -0.5
v 0.4 3.2 -0.6
v 0.4 2.6 -0.6
v 1.4 3.3 0.3
v 1.4 2.5 0.3
v 1.4 3.2 0.2
v 1.4 2.5 0.2
v 1.4 3.2 -0.6
v 1.4 2.5 -0.6
v 1.4 3.3 -0.7
v 1.4 2.5 -0.7
v 1.5 3.2 0.2
v 1.5 2.5 0.2
v 1.5 3.2 -0.6
v 1.5 2.5 -0.6

# faces
f 3/1/1 2/1/1 1/1/1
f 4/1/1 2/1/1 3/1/1
f 7/1/1 6/1/1 5/1/1
f 8/1/1 6/1/1 7/1/1
f 12/2/1 10/2/1 9/2/1
f 13/2/1 10/2/1 12/2/1
f 15/2/1 12/2/1 11/2/1
f 15/2/1 14/2/1 13/2/1
f 15/2/1 13/2/1 12/2/1
f 16/2/1 14/2/1 15/2/1
f 17/2/1 14/2/1 16/2/1
f 18/2/1 14/2/1 17/2/1
f 19/2/1 17/2/1 16/2/1
f 20/2/1 17/2/1 19/2/1
f 23/1/1 22/1/1 21/1/1
f 24/1/1 22/1/1 23/1/1
f 27/1/1 26/1/1 25/1/1
f 28/1/1 26/1/1 27/1/1
f 31/1/1 30/1/1 29/1/1
f 32/1/1 30/1/1 31/1/1
f 36/2/1 34/2/1 33/2/1
f 37/2/1 34/2/1 36/2/1
f 39/2/1 36/2/1 35/2/1
f 40/2/1 36/2/1 39/2/1
f 41/2/1 38/2/1 37/2/1
f 42/2/1 38/2/1 41/2/1
f 47/2/1 44/2/1 43/2/1
f 48/2/1 44/2/1 47/2/1
f 49/2/1 46/2/1 45/2/1
f 50/2/1 46/2/1 49/2/1
f 51/2/1 49/2/1 48/2/1
f 52/2/1 49/2/1 51/2/1
f 55/2/1 54/2/1 53/2/1
f 56/2/1 54/2/1 55/2/1
f 60/2/1 58/2/1 57/2/1
f 61/2/1 58/2/1 60/2/1
f 63/2/1 60/2/1 59/2/1
f 64/2/1 60/2/1 63/2/1
f 65/2/1 62/2/1 61/2/1
f 66/2/1 62/2/1 65/2/1
f 70/2/1 68/2/1 67/2/1
f 71/2/1 68/2/1 70/2/1
f 73/2/1 70/2/1 69/2/1
f 74/2/1 70/2/1 73/2/1
f 75/2/1 72/2/1 71/2/1
f 76/2/1 72/2/1 75/2/1
f 80/2/1 78/2/1 77/2/1
f 81/2/1 78/2/1 80/2/1
f 83/2/1 80/2/1 79/2/1
f 84/2/1 80/2/1 83/2/1
f 85/2/1 82/2/1 81/2/1
f 86/2/1 82/2/1 85/2/1
f 91/2/1 88/2/1 87/2/1
f 92/2/1 88/2/1 91/2/1
f 93/2/1 90/2/1 89/2/1
f 94/2/1 90/2/1 93/2/1
f 98/2/1 96/2/1 95/2/1
f 99/2/1 96/2/1 98/2/1
f 102/2/1 98/2/1 97/2/1
f 102/2/1 100/2/1 99/2/1
f 102/2/1 99/2/1 98/2/1
f 103/2/1 100/2/1 102/2/1
f 105/2/1 102/2/1 101/2/1
f 105/2/1 104/2/1 103/2/1
f 105/2/1 103/2/1 102/2/1
f 106/2/1 104/2/1 105/2/1
f 107/2/2 108/2/2 109/2/2
f 109/2/2 108/2/2 110/2/2
f 111/2/2 112/2/2 113/2/2
f 113/2/2 112/2/2 114/2/2
f 115/2/2 116/2/2 117/2/2
f 117/2/2 116/2/2 118/2/2
f 119/2/2 120/2/2 121/2/2
f 121/2/2 120/2/2 122/2/2
f 123/2/2 124/2/2 125/2/2
f 125/2/2 124/2/2 126/2/2
f 127/2/2 128/2/2 129/2/2
f 129/2/2 128/2/2 130/2/2
f 131/2/2 132/2/2 133/2/2
f 133/2/2 132/2/2 134/2/2
f 135/2/2 136/2/2 137/2/2
f 137/2/2 136/2/2 138/2/2
f 139/1/2 140/1/2 141/1/2
f 141/1/2 140/1/2 142/1/2
f 143/1/2 144/1/2 145/1/2
f 145/1/2 144/1/2 146/1/2
f 147/2/2 148/2/2 150/2/2
f 150/2/2 148/2/2 151/2/2
f 149/2/2 150/2/2 154/2/2
f 151/2/2 152/2/2 154/2/2
f 150/2/2 151/2/2 154/2/2
f 154/2/2 152/2/2 155/2/2
f 153/2/2 154/2/2 157/2/2
f 155/2/2 156/2/2 157/2/2
f 154/2/2 155/2/2 157/2/2
f 157/2/2 156/2/2 158/2/2
f 159/1/2 160/1/2 161/1/2
f 161/1/2 160/1/2 162/1/2
f 163/1/2 164/1/2 165/1/2
f 165/1/2 164/1/2 166/1/2
f 166/1/2 164/1/2 167/1/2
f 167/1/2 164/1/2 168/1/2
f 166/1/2 167/1/2 169/1/2
f 169/1/2 167/1/2 170/1/2
f 175/1/3 172/1/3 171/1/3
f 176/1/3 172/1/3 175/1/3
f 177/1/3 174/1/3 173/1/3
f 178/1/3 174/1/3 177/1/3
f 185/1/3 180/1/3 179/1/3
f 186/1/3 180/1/3 185/1/3
f 187/1/3 182/1/3 181/1/3
f 188/1/3 182/1/3 187/1/3
f 189/1/3 184/1/3 183/1/3
f 190/1/3 184/1/3 189/1/3
f 194/2/3 192/2/3 191/2/3
f 195/2/3 192/2/3 194/2/3
f 200/2/3 194/2/3 193/2/3
f 200/2/3 195/2/3 194/2/3
f 200/2/3 196/2/3 195/2/3
f 202/2/3 200/2/3 199/2/3
f 203/2/3 196/2/3 200/2/3
f 203/2/3 200/2/3 202/2/3
f 204/2/3 196/2/3 203/2/3
f 206/2/3 202/2/3 201/2/3
f 206/2/3 203/2/3 202/2/3
f 207/2/3 203/2/3 206/2/3
f 208/2/3 203/2/3 207/2/3
f 209/2/3 196/2/3 204/2/3
f 210/2/3 196/2/3 209/2/3
f 212/2/3 206/2/3 205/2/3
f 212/2/3 207/2/3 206/2/3
f 213/2/3 207/2/3 212/2/3
f 214/2/3 207/2/3 213/2/3
f 215/2/3 198/2/3 197/2/3
f 216/2/3 198/2/3 215/2/3
f 217/2/3 212/2/3 211/2/3
f 217/2/3 213/2/3 212/2/3
f 218/2/3 213/2/3 217/2/3
f 220/2/3 196/2/3 210/2/3
f 221/2/3 220/2/3 219/2/3
f 222/2/3 196/2/3 220/2/3
f 222/2/3 220/2/3 221/2/3
f 228/2/3 224/2/3 223/2/3
f 229/2/3 224/2/3 228/2/3
f 230/2/3 226/2/3 225/2/3
f 231/2/3 226/2/3 230/2/3
f 234/2/3 228/2/3 227/2/3
f 235/2/3 228/2/3 234/2/3
f 237/2/3 234/2/3 233/2/3
f 238/2/3 234/2/3 237/2/3
f 240/2/3 237/2/3 236/2/3
f 241/2/3 237/2/3 240/2/3
f 242/2/3 240/2/3 239/2/3
f 243/2/3 240/2/3 242/2/3
f 244/2/3 232/2/3 231/2/3
f 245/2/3 232/2/3 244/2/3
f 248/2/3 247/2/3 246/2/3
f 249/2/3 247/2/3 248/2/3
f 252/2/3 251/2/3 250/2/3
f 253/2/3 251/2/3 252/2/3
f 254/2/4 255/2/4 256/2/4
f 256/2/4 255/2/4 257/2/4
f 258/2/4 259/2/4 260/2/4
f 260/2/4 259/2/4 261/2/4
f 262/2/4 263/2/4 267/2/4
f 267/2/4 263/2/4 268/2/4
f 264/2/4 265/2/4 269/2/4
f 269/2/4 265/2/4 270/2/4
f 266/2/4 267/2/4 273/2/4
f 273/2/4 267/2/4 274/2/4
f 272/2/4 273/2/4 276/2/4
f 276/2/4 273/2/4 277/2/4
f 275/2/4 276/2/4 279/2/4
f 279/2/4 276/2/4 280/2/4
f 278/2/4 279/2/4 281/2/4
f 281/2/4 279/2/4 282/2/4
f 270/2/4 271/2/4 283/2/4
f 283/2/4 271/2/4 284/2/4
f 285/2/4 286/2/4 288/2/4
f 286/2/4 287/2/4 288/2/4
f 288/2/4 287/2/4 289/2/4
f 290/2/4 291/2/4 293/2/4
f 293/2/4 291/2/4 294/2/4
f 292/2/4 293/2/4 299/2/4
f 293/2/4 294/2/4 299/2/4
f 294/2/4 295/2/4 299/2/4
f 298/2/4 299/2/4 301/2/4
f 299/2/4 295/2/4 302/2/4
f 301/2/4 299/2/4 302/2/4
f 302/2/4 295/2/4 303/2/4
f 300/2/4 301/2/4 305/2/4
f 301/2/4 302/2/4 305/2/4
f 305/2/4 302/2/4 306/2/4
f 306/2/4 302/2/4 307/2/4
f 303/2/4 295/2/4 308/2/4
f 308/2/4 295/2/4 309/2/4
f 304/2/4 305/2/4 311/2/4
f 305/2/4 306/2/4 311/2/4
f 311/2/4 306/2/4 312/2/4
f 312/2/4 306/2/4 313/2/4
f 296/2/4 297/2/4 314/2/4
f 314/2/4 297/2/4 315/2/4
f 310/2/4 311/2/4 316/2/4
f 311/2/4 312/2/4 316/2/4
f 316/2/4 312/2/4 317/2/4
f 309/2/4 295/2/4 318/2/4
f 318/2/4 295/2/4 319/2/4
f 320/1/4 321/1/4 326/1/4
f 326/1/4 321/1/4 327/1/4
f 322/1/4 323/1/4 328/1/4
f 328/1/4 323/1/4 329/1/4
f 324/1/4 325/1/4 330/1/4
f 330/1/4 325/1/4 331/1/4
f 332/1/4 333/1/4 336/1/4
f 336/1/4 333/1/4 337/1/4
f 334/1/4 335/1/4 338/1/4
f 338/1/4 335/1/4 339/1/4
f 343/2/5 341/2/5 340/2/5
f 344/2/5 343/2/5 342/2/5
f 345/2/5 341/2/5 343/2/5
f 345/2/5 343/2/5 344/2/5
f 346/2/5 341/2/5 345/2/5
f 347/2/5 341/2/5 346/2/5
f 351/2/5 349/2/5 348/2/5
f 352/2/5 349/2/5 351/2/5
f 353/2/5 351/2/5 350/2/5
f 354/2/5 351/2/5 353/2/5
f 356/2/5 355/2/5 354/2/5
f 357/2/5 355/2/5 356/2/5
f 361/2/5 359/2/5 358/2/5
f 362/2/5 359/2/5 361/2/5
f 363/2/5 361/2/5 360/2/5
f 364/2/5 361/2/5 363/2/5
f 366/2/5 365/2/5 364/2/5
f 367/2/5 365/2/5 366/2/5
f 371/2/5 369/2/5 368/2/5
f 372/2/5 369/2/5 371/2/5
f 373/2/5 371/2/5 370/2/5
f 374/2/5 371/2/5 373/2/5
f 376/2/5 375/2/5 374/2/5
f 377/2/5 375/2/5 376/2/5
f 381/2/5 379/2/5 378/2/5
f 382/2/5 379/2/5 381/2/5
f 385/2/5 384/2/5 383/2/5
f 386/2/5 384/2/5 385/2/5
f 387/2/5 381/2/5 380/2/5
f 388/2/5 381/2/5 387/2/5
f 390/2/5 389/2/5 388/2/5
f 391/2/5 389/2/5 390/2/5
f 394/2/5 393/2/5 392/2/5
f 395/2/5 393/2/5 394/2/5
f 398/2/5 397/2/5 396/2/5
f 399/2/5 397/2/5 398/2/5
f 402/2/5 401/2/5 400/2/5
f 403/2/5 401/2/5 402/2/5
f 406/2/5 405/2/5 404/2/5
f 407/2/5 405/2/5 406/2/5
f 412/2/5 411/2/5 410/2/5
f 413/2/5 411/2/5 412/2/5
f 416/2/5 415/2/5 414/2/5
f 417/2/5 415/2/5 416/2/5
f 418/2/5 409/2/5 408/2/5
f 419/2/5 409/2/5 418/2/5
f 422/2/5 421/2/5 420/2/5
f 423/2/5 422/2/5 420/2/5
f 424/2/5 422/2/5 423/2/5
f 427/1/5 426/1/5 425/1/5
f 428/1/5 426/1/5 427/1/5
f 429/1/5 427/1/5 425/1/5
f 430/1/5 426/1/5 428/1/5
f 431/1/5 429/1/5 425/1/5
f 431/1/5 430/1/5 429/1/5
f 432/1/5 426/1/5 430/1/5
f 432/1/5 430/1/5 431/1/5
f 435/1/5 434/1/5 433/1/5
f 436/1/5 434/1/5 435/1/5
f 437/1/5 435/1/5 433/1/5
f 438/1/5 434/1/5 436/1/5
f 439/1/5 437/1/5 433/1/5
f 439/1/5 438/1/5 437/1/5
f 440/1/5 434/1/5 438/1/5
f 440/1/5 438/1/5 439/1/5
f 443/1/5 442/1/5 441/1/5
f 444/1/5 442/1/5 443/1/5
f 445/1/5 443/1/5 441/1/5
f 446/1/5 442/1/5 444/1/5
f 447/1/5 445/1/5 441/1/5
f 447/1/5 446/1/5 445/1/5
f 448/1/5 442/1/5 446/1/5
f 448/1/5 446/1/5 447/1/5
f 449/2/6 450/2/6 451/2/6
f 451/2/6 450/2/6 452/2/6
f 453/2/6 454/2/6 455/2/6
f 455/2/6 454/2/6 456/2/6
f 457/2/6 458/2/6 459/2/6
f 459/2/6 458/2/6 460/2/6
f 461/2/6 462/2/6 463/2/6
f 463/2/6 462/2/6 464/2/6
f 465/2/6 466/2/6 467/2/6
f 467/2/6 466/2/6 468/2/6
f 469/2/6 470/2/6 472/2/6
f 472/2/6 470/2/6 473/2/6
f 471/2/6 472/2/6 474/2/6
f 474/2/6 472/2/6 475/2/6
f 473/2/6 470/2/6 476/2/6
f 476/2/6 470/2/6 477/2/6
f 477/2/6 470/2/6 478/2/6
f 475/2/6 476/2/6 479/2/6
f 476/2/6 477/2/6 479/2/6
f 479/2/6 477/2/6 480/2/6
f 481/1/6 482/1/6 483/1/6
f 483/1/6 482/1/6 484/1/6
f 481/1/6 483/1/6 485/1/6
f 484/1/6 482/1/6 486/1/6
f 481/1/6 485/1/6 487/1/6
f 485/1/6 486/1/6 487/1/6
f 486/1/6 482/1/6 488/1/6
f 487/1/6 486/1/6 488/1/6
f 489/1/6 490/1/6 491/1/6
f 491/1/6 490/1/6 492/1/6
f 489/1/6 491/1/6 493/1/6
f 492/1/6 490/1/6 494/1/6
f 489/1/6 493/1/6 495/1/6
f 493/1/6 494/1/6 495/1/6
f 494/1/6 490/1/6 496/1/6
f 495/1/6 494/1/6 496/1/6
f 497/1/6 498/1/6 499/1/6
f 499/1/6 498/1/6 500/1/6
f 497/1/6 499/1/6 501/1/6
f 497/1/6 501/1/6 503/1/6
f 501/1/6 502/1/6 503/1/6
f 503/1/6 502/1/6 504/1/6
f 505/1/6 506/1/6 507/1/6
f 507/1/6 506/1/6 508/1/6
